<?xml version="1.0" encoding="UTF-8" standalone="no"?>
<!DOCTYPE svg PUBLIC "-//W3C//DTD SVG 1.1//EN" "http://www.w3.org/Graphics/SVG/1.1/DTD/svg11.dtd">
<svg width="100%" height="100%" viewBox="0 0 1882 1882" version="1.1" xmlns="http://www.w3.org/2000/svg" xmlns:xlink="http://www.w3.org/1999/xlink" xml:space="preserve" xmlns:serif="http://www.serif.com/" style="fill-rule:evenodd;clip-rule:evenodd;stroke-linejoin:round;stroke-miterlimit:1;">
    <style>
        .fill {
            fill: #fff;
        }
        .stroke {
            stroke: #fff;
        }
        @media (prefers-color-scheme: light) {
            .fill {
                fill: #000;
            }
            .stroke {
                stroke: #000;
            }
        }
    </style>
    <g transform="matrix(1,0,0,1,0,-135)">
        <g transform="matrix(1,0,0,1,-179,-58.9988)">
            <g>
                <path d="M417.547,1561.31C417.547,1561.31 495.348,1519.09 506.921,1478.56C456.018,1407.61 449.418,1304.26 539.505,1233.96C493.01,1125.12 526.872,997.377 647.308,937.899C593.454,809.371 652.788,715.328 851.268,717.235C903.021,628.864 976.911,615.071 1054.69,662.61C1123.88,590.392 1194.56,596.776 1263.62,677.564C1339.82,638.595 1408.11,636.846 1455.61,739.873C1544.44,734.608 1613.03,783.349 1609.29,896.149C1687.09,919.365 1695.3,984.583 1663.99,1072.21C1718.89,1133.39 1712.72,1214.49 1645.07,1281.5C1671.6,1345.27 1609.65,1449.24 1576.41,1443.51C1613.31,1568.79 1274.95,2049.93 1067.72,1988.86C911.144,1915.41 767.864,1783.82 721.677,1648.56C643.969,1628.15 560.589,1692.6 512.206,1697.19L417.547,1561.31ZM783.735,919.598C969.501,712.347 1398.39,707.502 1556.39,1036.03C1627.68,1226.62 1475.58,1621.14 1384.44,1763.14C1326.01,1854.17 1217.5,1933.65 1109.34,1935.26C996.045,1936.95 779.296,1725.15 712.025,1541.36C703.779,1516.27 672.703,1685.88 580.103,1567.81C542.692,1520.4 534.237,1365.26 612.662,1357.97C663.731,1356.31 688.194,1413.52 701.126,1380.38C682.151,1190.96 717.519,980.983 783.735,919.598Z" class="fill stroke" style="stroke-width:40px;"/>
                <g>
                    <g>
                        <path d="M1058.06,1197.41C1080.1,1197.41 1170.69,1252.7 1170.69,1297.19C1170.69,1341.67 1080.1,1358.62 1058.06,1358.62C1036.01,1358.62 1018.12,1322.5 1018.12,1278.01C1018.12,1233.53 1036.01,1197.41 1058.06,1197.41Z" class="fill"/>
                        <path d="M836.064,1307.8C836.064,1307.8 1030.03,1424.63 1184.65,1307.8C1104.85,1062.49 836.064,1307.8 836.064,1307.8Z" class="stroke" style="fill:none;stroke-width:40px;"/>
                    </g>
                    <path d="M1026.32,1680.56C1026.32,1680.56 1108.85,1678.91 1142.27,1750.5C1197.99,1697.48 1284.58,1728.01 1284.58,1728.01" class="stroke" style="fill:none;stroke-width:40px;"/>
                    <g>
                        <path d="M1310.4,1305.57C1310.4,1305.57 1490.84,1112.86 1564.94,1359.72C1404.12,1496.04 1310.4,1305.57 1310.4,1305.57Z" class="stroke" style="fill:none;stroke-width:40px;"/>
                        <g transform="matrix(0.982268,0.187483,-0.294802,1.54453,406.686,-981.62)">
                            <path d="M1470.8,1256.12C1490.54,1256.12 1556.22,1286.98 1556.22,1319.14C1556.22,1351.31 1490.54,1372.69 1470.8,1372.69C1451.06,1372.69 1435.03,1346.57 1435.03,1314.41C1435.03,1282.24 1451.06,1256.12 1470.8,1256.12Z" class="fill"/>
                        </g>
                    </g>
                    <path d="M1026.35,1464.51C1025.51,1483.97 1044.62,1546.53 1091.74,1559.8C1122.74,1568.53 1161.09,1537.61 1172.99,1512.41C1179,1499.71 1256.02,1580.02 1281.13,1523.47C1336.8,1398.12 1268.18,1094.29 1361.99,1066.29C1431.51,1045.53 1564.94,1109.85 1564.94,1109.85" class="stroke" style="fill:none;stroke-width:40px;"/>
                    <path d="M831.34,1135.01C1002.43,1000.04 1125.83,992.193 1196.71,1124.27" class="stroke" style="fill:none;stroke-width:40px;"/>
                    <g transform="matrix(1,0,0,1,-13.9353,-18.093)">
                        <ellipse cx="1150.35" cy="1842.33" rx="22.671" ry="25.526" class="fill"/>
                    </g>
                    <g transform="matrix(1.41063,-0.712023,0.431625,0.855114,-1744.65,719.051)">
                        <ellipse cx="1150.35" cy="1842.33" rx="22.671" ry="25.526" class="fill"/>
                    </g>
                </g>
            </g>
            <path d="M393.318,2081.14C393.318,2081.14 397.13,1820.2 496.238,1693.63C45.876,1104.51 454.279,222.889 1163.7,237.031C1915.78,252.023 2219.02,1210.91 1510.44,1835.61C1532.11,1925.02 1527.67,2081.14 1527.67,2081.14" class="stroke" style="fill:none;stroke-width:82px;"/>
            <g>
                <g transform="matrix(0.999104,-0.0423232,0.0423232,0.999104,-97.4954,90.9595)">
                    <path d="M768.748,1595.45C739.087,1734.6 696.737,1891.42 692.476,2022.14" class="stroke" style="fill:none;stroke-width:80px;"/>
                </g>
                <g transform="matrix(0.999104,-0.0423232,0.0423232,0.999104,38.0035,90.9595)">
                    <path d="M736.295,1732.05C706.635,1871.2 696.737,1891.42 692.476,2022.14" class="stroke" style="fill:none;stroke-width:80px;"/>
                </g>
            </g>
            <g transform="matrix(-1,0,0,1,2046.86,0)">
                <g transform="matrix(0.999104,-0.0423232,0.0423232,0.999104,-71.4954,90.9595)">
                    <path d="M730.246,1798.81C700.585,1937.96 696.737,1891.42 692.476,2022.14" class="stroke" style="fill:none;stroke-width:80px;"/>
                </g>
                <g transform="matrix(-1,0,0,1,2046.86,0)">
                    <path d="M1439.99,1703.47C1477.89,1760.77 1515.31,1812.31 1522.09,1901.7" class="stroke" style="fill:none;stroke-width:80px;"/>
                </g>
                <g transform="matrix(0.999104,-0.0423232,0.0423232,0.999104,38.0035,90.9595)">
                    <path d="M718.195,1848.85C688.534,1988 696.737,1891.42 692.476,2022.14" class="stroke" style="fill:none;stroke-width:80px;"/>
                </g>
            </g>
        </g>
    </g>
</svg>
